# xmcd
#
# Track frame offsets: 
#        150
#        9899
#        20521
#        30055
#        39920
#        51357
#        63465
#        74455
#        86435
#        97447
#        110164
#        121599
#        133095
#        146217
#        157570
#        166906
#        178152
#        186567
#        198470
#        209996
#        222328
#
# Disc length: 3176 seconds
#
# Revision: 1
# Processed by: cddbd v1.5.2PL0 Copyright (c) Steve Scherf et al.
# Submitted via: ExactAudioCopyFreeDBPlugin 1.0
#
DISCID=350c6615
DTITLE=Various Artist - Northern Soul Of Detroit
DYEAR=2005
DGENRE=Northern Soul
TTITLE0=George Lemons - Fascinating Girl
TTITLE1=Chuck Holiday - I Still Love You
TTITLE2=Johnny Hampton - Not My Girl
TTITLE3=Pat Lewis - No One To Love
TTITLE4=The Adorables - Ooh Boy
TTITLE5=Edde Parker - I'm Gone
TTITLE6=Connie Van Dyke - Don't Do Nothing I Wouldn't Do
TTITLE7=Dennis Edwards - Johnny On The Spot
TTITLE8=Doni Burdick - Candle In The Window
TTITLE9=Four Sonics - Where Are You
TTITLE10=Martha Starr - No Part Time Love For Me
TTITLE11=Wonderettes - I Feel Strange
TTITLE12=Fabuluos Appollos - Some Good In Everything Bad
TTITLE13=Willie Hatcher - Good Things Come To Those Who Wait
TTITLE14=Jock Mitchell - No Mad Woman
TTITLE15=Tempos - Lonely One
TTITLE16=Bob and Fred -  I'll Be On My Way
TTITLE17=Albert Jones - Fifteen Cent Love
TTITLE18=Emanuel Laskey - I'm A Peace Lovin' Man
TTITLE19=Chuck Overton - I'm So Thankful
TTITLE20=Bitter and Sweet - I Won't Have Any Babies For You
EXTD=
EXTT0=
EXTT1=
EXTT2=
EXTT3=
EXTT4=
EXTT5=
EXTT6=
EXTT7=
EXTT8=
EXTT9=
EXTT10=
EXTT11=
EXTT12=
EXTT13=
EXTT14=
EXTT15=
EXTT16=
EXTT17=
EXTT18=
EXTT19=
EXTT20=
PLAYORDER=
